Coordinates
version=1
nRows=14
nColumns=63
inDegrees=yes

Units are S.I. units (second, meters, Newtons, ...)
If the header above contains a line with 'inDegrees', this indicates whether rotational values are in degrees (yes) or radians (no).

endheader
time	pelvis_tilt	pelvis_list	pelvis_rotation	pelvis_tx	pelvis_ty	pelvis_tz	hip_flexion_r	hip_adduction_r	hip_rotation_r	knee_angle_r	knee_angle_r_beta	ankle_angle_r	subtalar_angle_r	mtp_angle_r	hip_flexion_l	hip_adduction_l	hip_rotation_l	knee_angle_l	knee_angle_l_beta	ankle_angle_l	subtalar_angle_l	mtp_angle_l	L5_S1_Flex_Ext	L5_S1_Lat_Bending	L5_S1_axial_rotation	L4_L5_Flex_Ext	L4_L5_Lat_Bending	L4_L5_axial_rotation	L3_L4_Flex_Ext	L3_L4_Lat_Bending	L3_L4_axial_rotation	L2_L3_Flex_Ext	L2_L3_Lat_Bending	L2_L3_axial_rotation	L1_L2_Flex_Ext	L1_L2_Lat_Bending	L1_L2_axial_rotation	L1_T12_Flex_Ext	L1_T12_Lat_Bending	L1_T12_axial_rotation	Abs_r3	Abs_r2	Abs_r1	Abs_t1	Abs_t2	neck_flexion	neck_bending	neck_rotation	arm_flex_r	arm_add_r	arm_rot_r	elbow_flex_r	pro_sup_r	wrist_flex_r	wrist_dev_r	arm_flex_l	arm_add_l	arm_rot_l	elbow_flex_l	pro_sup_l	wrist_flex_l	wrist_dev_l
3.452381	-3.935922	-1.040357	90.693645	0.183775	0.737988	0.819375	7.189001	-0.159731	-4.277400	8.564085	0.149471	32.451470	5.308038	0.000000	5.053121	0.620740	8.459831	1.539477	0.026869	29.385483	-4.754226	0.000000	0.106101	-0.158895	-0.515150	0.197039	-0.211330	-0.547347	0.174313	-0.386337	-0.547347	0.121262	-0.386337	-0.450756	0.098525	-0.324018	-0.418559	0.060626	-0.246128	-0.386363	0.757866	-1.797449	-2.865110	0.000000	0.000000	26.351745	5.422855	4.659418	3.756425	-14.653180	49.346433	37.772767	63.661355	-4.605787	3.069471	6.523036	-15.235872	159.355772	1.758111	16.958719	-6.715263	-6.068130
3.476190	-3.671998	-0.816064	90.956721	0.182824	0.736925	0.817985	6.658833	0.055382	-4.725394	8.283266	0.144570	32.617066	5.821697	0.000000	4.718025	0.407843	10.053086	1.386565	0.024200	29.741891	-6.017512	0.000000	0.083375	-0.103490	-0.557001	0.154836	-0.137642	-0.591814	0.136977	-0.251626	-0.591814	0.095289	-0.251626	-0.487376	0.077422	-0.211037	-0.452563	0.047641	-0.160306	-0.417751	0.595540	-1.170703	-3.097873	0.000000	0.000000	26.919117	5.030899	5.594863	4.453045	-14.533175	61.117101	30.857260	56.377261	-4.393273	1.680085	6.512791	-14.387563	168.231164	-0.023854	12.051829	-5.903543	-5.080439
3.500000	-3.382101	-0.612555	91.208471	0.181944	0.735999	0.816645	6.154346	0.326117	-4.922817	7.949940	0.138753	32.680126	6.004683	0.000000	4.415684	0.159822	11.573069	1.248164	0.021785	30.130669	-7.180143	0.000000	0.063526	-0.041706	-0.597957	0.117974	-0.055469	-0.635329	0.104367	-0.101404	-0.635329	0.072604	-0.101404	-0.523212	0.058990	-0.085047	-0.485840	0.036299	-0.064603	-0.448467	0.453761	-0.471787	-3.325655	0.000000	0.000000	27.345640	4.519151	6.682585	5.158313	-14.563674	72.791684	24.936595	48.318863	-4.179254	0.220358	6.158505	-13.604894	174.384586	-0.690321	9.173767	-5.217351	-3.955772
3.523810	-3.085133	-0.463672	91.429148	0.181200	0.735170	0.815430	5.710372	0.628654	-4.905527	7.554081	0.131844	32.655121	5.941114	0.000000	4.184634	-0.107734	12.952089	1.129135	0.019707	30.521161	-8.213665	0.000000	0.051510	0.023066	-0.631417	0.095660	0.030678	-0.670881	0.084626	0.056082	-0.670881	0.058871	0.056082	-0.552490	0.047832	0.047036	-0.513027	0.029433	0.035729	-0.473563	0.367933	0.260925	-3.511755	0.000000	0.000000	27.661380	3.944005	7.905344	5.799963	-14.718832	84.087811	20.054103	39.735622	-3.920602	-1.327233	5.571524	-12.976214	177.376589	-0.482473	8.308467	-4.643360	-2.962482
3.547619	-2.785829	-0.384179	91.618332	0.180668	0.734390	0.814402	5.344102	0.955620	-4.727437	7.092391	0.123786	32.557279	5.697068	0.000000	4.045485	-0.394995	14.162991	1.030606	0.017987	30.876785	-9.121958	0.000000	0.050155	0.087055	-0.655094	0.093143	0.115783	-0.696037	0.082400	0.211665	-0.696037	0.057322	0.211665	-0.573207	0.046574	0.177522	-0.532264	0.028659	0.134848	-0.491321	0.358252	0.984782	-3.643436	0.000000	0.000000	27.876303	3.345788	9.135117	6.343224	-14.938367	94.712708	16.215448	30.988179	-3.638819	-2.883846	4.882659	-12.590338	176.862171	0.333179	9.132069	-4.236360	-2.345745
3.571429	-2.497812	-0.380094	91.792496	0.180406	0.733612	0.813587	5.059064	1.290663	-4.429904	6.558202	0.114462	32.400193	5.308096	0.000000	4.007424	-0.689052	15.232095	0.949315	0.016569	31.158085	-9.942929	0.000000	0.061077	0.144678	-0.670388	0.113425	0.192422	-0.712287	0.100343	0.351770	-0.712287	0.069804	0.351770	-0.586589	0.056716	0.295027	-0.544690	0.034899	0.224106	-0.502791	0.436263	1.636625	-3.728496	0.000000	0.000000	28.004490	2.790788	10.231923	6.780918	-15.169433	104.333058	13.410924	22.543597	-3.418936	-4.218929	4.269282	-12.539337	172.699672	1.512575	11.617916	-4.142598	-2.131651
3.595238	-2.228555	-0.443737	91.956531	0.180426	0.732849	0.813025	4.847314	1.625028	-3.974804	5.952652	0.103893	32.171315	4.705081	0.000000	4.064872	-0.981541	16.181412	0.879817	0.015356	31.327634	-10.712962	0.000000	0.082256	0.192815	-0.678559	0.152758	0.256444	-0.720969	0.135139	0.468810	-0.720969	0.094011	0.468810	-0.593739	0.076383	0.393188	-0.551329	0.047001	0.298670	-0.508919	0.587549	2.181159	-3.773941	0.000000	0.000000	28.067195	2.355255	11.113870	7.153255	-15.374605	112.792144	11.556474	14.905036	-3.337203	-5.150466	3.997900	-12.829190	165.340110	2.825840	15.989315	-4.574233	-2.120197
3.619048	-1.971706	-0.585798	92.099903	0.180658	0.732155	0.812729	4.727479	1.956915	-3.424509	5.303810	0.092569	31.863393	3.974561	0.000000	4.229125	-1.274068	16.910499	0.825010	0.014399	31.375574	-11.320383	0.000000	0.113371	0.233654	-0.692096	0.210541	0.310759	-0.735352	0.186257	0.568105	-0.735352	0.129571	0.568105	-0.605584	0.105276	0.476466	-0.562328	0.064780	0.361929	-0.519072	0.809795	2.643137	-3.849230	0.000000	0.000000	28.096621	2.066621	11.854823	7.587128	-15.583967	119.789905	10.566036	8.356733	-3.377976	-5.654639	4.253696	-12.755240	163.684902	2.598240	15.723886	-4.801146	-2.552036
3.642857	-1.792230	-0.799390	92.231904	0.181259	0.731517	0.812730	4.701540	2.231267	-2.754339	4.647461	0.081113	31.488021	3.067128	0.000000	4.499191	-1.507438	17.395471	0.798326	0.013933	31.273125	-11.735182	0.000000	0.151676	0.255144	-0.713687	0.281678	0.339342	-0.758293	0.249189	0.620357	-0.758293	0.173351	0.620357	-0.624476	0.140847	0.520290	-0.579871	0.086668	0.395218	-0.535266	1.083409	2.886242	-3.969315	0.000000	0.000000	28.137600	2.022307	12.366618	8.141719	-15.723374	124.978352	10.266088	3.170235	-3.445501	-5.924091	4.737458	-12.819227	161.764935	2.318897	15.542673	-4.678464	-3.084818
3.666667	-1.704909	-1.063767	92.352770	0.182213	0.731018	0.813060	4.756513	2.429610	-2.002644	4.016523	0.070102	31.047487	2.031500	0.000000	4.852476	-1.663904	17.606801	0.803549	0.014025	31.026203	-11.902257	0.000000	0.192518	0.255839	-0.737397	0.357525	0.340266	-0.783485	0.316288	0.622047	-0.783485	0.220029	0.622047	-0.645223	0.178772	0.521707	-0.599135	0.110005	0.396295	-0.553048	1.375137	2.894104	-4.101183	0.000000	0.000000	28.200575	2.179878	12.589300	8.825161	-15.766390	128.542614	10.307351	-0.410100	-3.459002	-5.994194	5.496293	-13.019177	159.882630	2.008776	15.439804	-4.399680	-3.866681
3.690476	-1.693635	-1.359607	92.470323	0.183430	0.730715	0.813717	4.871112	2.562738	-1.227093	3.430752	0.059878	30.537596	0.918563	0.000000	5.265272	-1.752936	17.609067	0.839924	0.014659	30.659201	-11.876160	0.000000	0.232554	0.240419	-0.762650	0.431877	0.319757	-0.810315	0.382064	0.584555	-0.810315	0.265786	0.584555	-0.667318	0.215950	0.490263	-0.619653	0.132882	0.372409	-0.571987	1.661113	2.719669	-4.241628	0.000000	0.000000	28.272406	2.506504	12.606573	9.721393	-15.727789	130.528573	10.412395	-2.198825	-3.500449	-6.064503	6.531767	-13.330398	158.033579	1.683022	15.238470	-4.021101	-4.962746
3.714286	-1.737897	-1.659204	92.566344	0.184770	0.730639	0.814675	5.023711	2.642012	-0.467625	2.923824	0.051030	29.978382	-0.207159	0.000000	5.698623	-1.787361	17.452198	0.897717	0.015668	30.205899	-11.719301	0.000000	0.268641	0.216140	-0.777375	0.498893	0.287466	-0.825961	0.441350	0.525522	-0.825961	0.307029	0.525522	-0.680203	0.249460	0.440752	-0.631617	0.153501	0.334800	-0.583031	1.918873	2.445014	-4.323527	0.000000	0.000000	28.322721	2.906390	12.485607	10.889546	-15.616889	130.932462	10.385988	-2.017887	-3.548746	-6.187235	7.868323	-13.664043	156.242073	1.377416	14.657424	-3.503803	-6.373790
3.738095	-1.793029	-1.943411	92.619867	0.186018	0.730774	0.815904	5.200676	2.691299	0.137958	2.523452	0.044043	29.386292	-1.150906	0.000000	6.123677	-1.800674	17.260220	0.966348	0.016866	29.680492	-11.614515	0.000000	0.299170	0.194342	-0.772206	0.555588	0.258475	-0.820469	0.491506	0.472523	-0.820469	0.341921	0.472523	-0.675680	0.277809	0.396302	-0.627417	0.170946	0.301035	-0.579154	2.136939	2.198433	-4.294777	0.000000	0.000000	28.331785	3.267668	12.342687	12.376718	-15.451188	130.282979	10.119091	-0.243780	-3.703762	-6.523530	9.498399	-13.874132	154.585185	1.131475	13.673457	-3.127997	-8.080455
3.761905	-1.807794	-2.190861	92.627161	0.186977	0.731080	0.817302	5.375080	2.756232	0.595092	2.237748	0.039056	28.769138	-1.931835	0.000000	6.514120	-1.837434	16.866853	1.049152	0.018311	29.209292	-11.322261	0.000000	0.323039	0.185641	-0.738468	0.599916	0.246902	-0.784623	0.530721	0.451367	-0.784623	0.369202	0.451367	-0.646160	0.299974	0.378559	-0.600006	0.184585	0.287557	-0.553851	2.307437	2.100005	-4.107139	0.000000	0.000000	28.307378	3.463792	12.236410	13.997321	-15.196637	128.231418	9.746792	3.715411	-4.137112	-6.925145	11.392841	-13.807860	153.458684	0.960532	12.265253	-3.215456	-10.023791
